<?xml version="1.0" encoding="utf-8"?>
<!-- Generator: Adobe Illustrator 24.0.1, SVG Export Plug-In . SVG Version: 6.00 Build 0)  -->
<svg version="1.1" id="圖層_1" xmlns="http://www.w3.org/2000/svg" xmlns:xlink="http://www.w3.org/1999/xlink" x="0px" y="0px"
	 viewBox="0 0 45 54" style="enable-background:new 0 0 45 54;" xml:space="preserve">
<style type="text/css">
	.st0{fill:url(#SVGID_1_);}
	.st1{fill:url(#SVGID_2_);}
	.st2{fill:url(#SVGID_3_);}
	.st3{fill:url(#SVGID_4_);}
</style>
<g>
	<g>
		
			<linearGradient id="SVGID_1_" gradientUnits="userSpaceOnUse" x1="-113.5167" y1="222.5158" x2="-136.7136" y2="221.7728" gradientTransform="matrix(1.9346 0 0 -1.9346 264.4805 456.7535)">
			<stop  offset="0" style="stop-color:#04A9C2"/>
			<stop  offset="1" style="stop-color:#095EBD"/>
		</linearGradient>
		<path class="st0" d="M22.5,4.5C10.1,4.5,0,14.6,0,27c0,12.4,10.1,22.5,22.5,22.5C34.9,49.5,45,39.4,45,27
			C45,14.6,34.9,4.5,22.5,4.5z M22.5,46.7C11.6,46.7,2.8,37.9,2.8,27c0-10.9,8.8-19.7,19.7-19.7c10.9,0,19.7,8.8,19.7,19.7
			C42.2,37.9,33.4,46.7,22.5,46.7z"/>
		
			<linearGradient id="SVGID_2_" gradientUnits="userSpaceOnUse" x1="-113.5213" y1="222.6572" x2="-136.7182" y2="221.9143" gradientTransform="matrix(1.9346 0 0 -1.9346 264.4805 456.7535)">
			<stop  offset="0" style="stop-color:#04A9C2"/>
			<stop  offset="1" style="stop-color:#095EBD"/>
		</linearGradient>
		<path class="st1" d="M13.9,24.7c-1.3,0-2.3,1-2.3,2.3c0,1.3,1,2.3,2.3,2.3c1.3,0,2.3-1,2.3-2.3C16.3,25.7,15.2,24.7,13.9,24.7z"/>
		
			<linearGradient id="SVGID_3_" gradientUnits="userSpaceOnUse" x1="-113.5167" y1="222.5158" x2="-136.7136" y2="221.7728" gradientTransform="matrix(1.9346 0 0 -1.9346 264.4805 456.7535)">
			<stop  offset="0" style="stop-color:#04A9C2"/>
			<stop  offset="1" style="stop-color:#095EBD"/>
		</linearGradient>
		<path class="st2" d="M22.5,24.7c-1.3,0-2.3,1-2.3,2.3c0,1.3,1,2.3,2.3,2.3c1.3,0,2.3-1,2.3-2.3C24.8,25.7,23.8,24.7,22.5,24.7z"/>
		
			<linearGradient id="SVGID_4_" gradientUnits="userSpaceOnUse" x1="-113.5122" y1="222.3744" x2="-136.7091" y2="221.6314" gradientTransform="matrix(1.9346 0 0 -1.9346 264.4805 456.7535)">
			<stop  offset="0" style="stop-color:#04A9C2"/>
			<stop  offset="1" style="stop-color:#095EBD"/>
		</linearGradient>
		<path class="st3" d="M31.1,24.7c-1.3,0-2.3,1-2.3,2.3c0,1.3,1,2.3,2.3,2.3c1.3,0,2.3-1,2.3-2.3C33.4,25.7,32.3,24.7,31.1,24.7z"/>
	</g>
</g>
</svg>
