<?xml version="1.0" encoding="utf-8"?>
<!-- Generator: Adobe Illustrator 24.0.1, SVG Export Plug-In . SVG Version: 6.00 Build 0)  -->
<svg version="1.1" id="圖層_1" xmlns="http://www.w3.org/2000/svg" xmlns:xlink="http://www.w3.org/1999/xlink" x="0px" y="0px"
	 viewBox="0 0 90 90" style="enable-background:new 0 0 90 90;" xml:space="preserve">
<style type="text/css">
	.st0{fill:url(#SVGID_1_);}
	.st1{fill:url(#SVGID_2_);}
	.st2{fill:url(#SVGID_3_);}
</style>
<g>
	<g>
		
			<linearGradient id="SVGID_1_" gradientUnits="userSpaceOnUse" x1="80.3472" y1="557.5116" x2="10.646" y2="560.1497" gradientTransform="matrix(1 0 0 1 0 -510)">
			<stop  offset="0" style="stop-color:#04A9C2"/>
			<stop  offset="1" style="stop-color:#095EBD"/>
		</linearGradient>
		<path class="st0" d="M35.6,65.6l-1.2-1.1c-0.3-0.3-8.1-7.3-10.5-9.8l-0.4-0.4C21.2,52,18,48.7,18,42.4c0-5.1,4.1-9.3,9.1-9.3
			c4.1,0,7,2.1,8.6,3.6c1.6-1.5,4.6-3.6,8.6-3.6c5,0,9.1,4.2,9.1,9.3c0,6.3-3.2,9.5-5.6,11.9l-0.4,0.4c-2.4,2.5-10.2,9.5-10.5,9.8
			L35.6,65.6z M27,36.6c-3.1,0-5.6,2.6-5.6,5.8c0,4.8,2.3,7.2,4.6,9.5l0.4,0.4c1.8,1.8,6.9,6.5,9.2,8.6c2.3-2.1,7.4-6.8,9.2-8.6
			l0.4-0.4c2.3-2.3,4.6-4.7,4.6-9.5c0-3.2-2.5-5.8-5.6-5.8c-4.4,0-7.2,3.7-7.2,3.8l-1.4,2l-1.4-2C34.2,40.3,31.5,36.6,27,36.6z"/>
		
			<linearGradient id="SVGID_2_" gradientUnits="userSpaceOnUse" x1="80.3419" y1="557.3729" x2="10.6407" y2="560.011" gradientTransform="matrix(1 0 0 1 0 -510)">
			<stop  offset="0" style="stop-color:#04A9C2"/>
			<stop  offset="1" style="stop-color:#095EBD"/>
		</linearGradient>
		<path class="st1" d="M52.9,14.1H18.4c-4.5,0-8.1,3.6-8.1,8.1v53.6c0,4.5,3.6,8.1,8.1,8.1h34.5c4.5,0,8.1-3.6,8.1-8.1V22.2
			C61,17.8,57.4,14.1,52.9,14.1z M57.2,75.9c0,2.4-1.9,4.3-4.3,4.3H18.4c-2.3,0-4.3-1.9-4.3-3.4V22.2c0-2.4,1.9-4.3,4.3-4.3h34.5
			c2.3,0,4.3,1.9,4.3,3.4V75.9z"/>
		
			<linearGradient id="SVGID_3_" gradientUnits="userSpaceOnUse" x1="80.1577" y1="552.5074" x2="10.4566" y2="555.1455" gradientTransform="matrix(1 0 0 1 0 -510)">
			<stop  offset="0" style="stop-color:#04A9C2"/>
			<stop  offset="1" style="stop-color:#095EBD"/>
		</linearGradient>
		<path class="st2" d="M73.1,12.5L39.2,6.2c-4.4-0.8-8.6,2.1-9.5,6.5l-0.6,3.2H33l0.5-2.5c0.4-2.3,2.7-3.9,5-3.4l33.9,6.4
			c2.3,0.4,3.9,2.6,3.6,4.2L66,74c-0.4,2.3-2.7,3.9-5,3.4L58.3,77v3.8l1.9,0.4c4.4,0.8,8.6-2.1,9.5-6.5L79.6,22
			C80.4,17.6,77.5,13.4,73.1,12.5z"/>
	</g>
</g>
</svg>
