<?xml version="1.0" encoding="utf-8"?>
<!-- Generator: Adobe Illustrator 24.0.1, SVG Export Plug-In . SVG Version: 6.00 Build 0)  -->
<svg version="1.1" id="圖層_1" xmlns="http://www.w3.org/2000/svg" xmlns:xlink="http://www.w3.org/1999/xlink" x="0px" y="0px"
	 viewBox="0 0 90 90" style="enable-background:new 0 0 90 90;" xml:space="preserve">
<style type="text/css">
	.st0{fill:url(#SVGID_1_);}
	.st1{fill:url(#SVGID_2_);}
</style>
<g>
	<g>
		<g>
			
				<linearGradient id="SVGID_1_" gradientUnits="userSpaceOnUse" x1="68.4259" y1="1309.0293" x2="9.0291" y2="1308.4272" gradientTransform="matrix(1 0 0 1 0 -1270)">
				<stop  offset="0" style="stop-color:#04A9C2"/>
				<stop  offset="1" style="stop-color:#095EBD"/>
			</linearGradient>
			<path class="st0" d="M57.9,59.5c-2.4,0-4.5-0.7-5.9-1.3c-3.9-1.5-7.5-3.6-11.2-6.8c-1.4-1.2-2.7-2.4-3.8-3.7
				c-1.3-1.2-2.5-2.5-3.6-3.9c-3.1-3.8-5.3-7.4-6.7-11.3c-0.6-1.6-1.4-4.2-1.1-6.9c0.2-1.9,0.9-3.5,2.3-4.8l1.2-1.2
				c1.1-1.1,2.4-1.6,3.8-1.6c1.4,0,2.7,0.6,3.7,1.6c0.6,0.5,1.1,1.1,1.6,1.6l2,2.1l1.1,1.1c1.1,1.1,1.7,2.5,1.7,3.9
				s-0.6,2.7-1.8,3.9c0,0-1.7,1.6-2,2l0.3,0.5c0.4,0.6,0.8,1.3,1.4,2c1,1.3,5.8,6.1,7,7.1c0.7,0.6,1.4,1.1,2,1.5l0.5,0.3l2.1-2
				c1.1-1.1,2.5-1.7,3.9-1.7c1.4,0,2.7,0.6,3.9,1.8l2.3,2.4c0.2,0.3,0.5,0.5,0.7,0.7c0.5,0.5,1.1,1.1,1.6,1.7
				c1.5,1.6,1.6,3.3,1.6,3.8c0,1.4-0.6,2.7-1.6,3.8l-0.1,0.1l-1.1,1.1c-1.3,1.3-2.9,2-4.8,2.2C58.5,59.5,58.2,59.5,57.9,59.5z
				 M32.7,20.7c-0.7,0-1.4,0.3-2,0.9l-1.2,1.2c-0.9,0.9-1.4,1.9-1.5,3.1c-0.2,2.2,0.5,4.4,1,5.8c1.3,3.6,3.3,7,6.3,10.6
				c1.1,1.3,2.2,2.5,3.4,3.7l0.1,0.1c1.1,1.2,2.3,2.4,3.6,3.5c3.6,3,6.9,5,10.5,6.4c1.2,0.5,3.1,1.1,5,1.1c0.3,0,0.5,0,0.8,0
				c1.2-0.1,2.3-0.6,3.2-1.5l1.2-1.1c0.6-0.6,0.9-1.3,0.9-2c0-0.9-0.5-1.5-0.9-2L63,50.3c-0.5-0.5-1-1-1.5-1.5
				c-0.3-0.3-0.5-0.5-0.8-0.8l-2.4-2.4c-0.6-0.6-1.3-1-2-1s-1.4,0.3-2,1l-0.9,0.9c-0.6,0.5-1.2,1.1-1.7,1.8c-0.3,0.3-0.6,0.4-1,0.4
				c-0.2,0-0.4,0-0.5-0.1c-1.2-0.6-2.5-1.4-3.9-2.5c-1.4-1.2-6.3-6.1-7.4-7.5c-1.1-1.4-1.9-2.7-2.5-3.9c-0.2-0.5-0.1-1.1,0.3-1.5
				c0.6-0.6,1.2-1.1,1.7-1.6l1-1c0.7-0.6,1-1.3,1-2c0-0.7-0.3-1.4-1-2L37,23.9c-0.3-0.3-0.5-0.5-0.8-0.8c-0.5-0.5-1-1-1.5-1.5
				C34.1,21,33.4,20.7,32.7,20.7z"/>
		</g>
		
			<linearGradient id="SVGID_2_" gradientUnits="userSpaceOnUse" x1="68.362" y1="1315.3441" x2="8.9651" y2="1314.7422" gradientTransform="matrix(1 0 0 1 0 -1270)">
			<stop  offset="0" style="stop-color:#04A9C2"/>
			<stop  offset="1" style="stop-color:#095EBD"/>
		</linearGradient>
		<path class="st1" d="M29.9,80.8L29.9,80.8c-2.3,0-4.5-1.7-4.5-4.8l0-7.5C21.3,67,9.1,60.9,9.3,41.1c0.2-23.4,10.1-32,36.5-31.8
			c24.9,0.2,35,9.5,34.9,32.1c-0.2,22.4-15,27.8-23.8,29c-7.7,1.1-13.6,0.9-15.7,0.8c-1.6,1.7-6.2,6.5-7.8,8.1
			C32.4,80.3,31.1,80.8,29.9,80.8z M45.8,12.7c-24.3-0.2-33,7.3-33.2,28.5C12.5,62,26.9,65.5,27.5,65.7l1.3,0.3v1.3L28.7,76
			c0,1.2,0.8,1.3,1.1,1.3l0,0c0.4,0,0.8-0.2,1.2-0.5c1.9-1.8,8.2-8.5,8.2-8.5l0.5-0.6l0.8,0.1c0,0,1.1,0.1,3,0.1
			c2.8,0,7.4-0.1,12.8-0.9c9.5-1.3,20.8-6.8,20.9-25.7C77.5,20.9,68.6,12.8,45.8,12.7z"/>
	</g>
</g>
</svg>
