<?xml version="1.0" encoding="utf-8"?>
<!-- Generator: Adobe Illustrator 24.0.1, SVG Export Plug-In . SVG Version: 6.00 Build 0)  -->
<svg version="1.1" id="圖層_1" xmlns="http://www.w3.org/2000/svg" xmlns:xlink="http://www.w3.org/1999/xlink" x="0px" y="0px"
	 viewBox="0 0 90 90" style="enable-background:new 0 0 90 90;" xml:space="preserve">
<style type="text/css">
	.st0{fill:url(#SVGID_1_);}
	.st1{fill:url(#SVGID_2_);}
	.st2{fill:url(#SVGID_3_);}
	.st3{fill:url(#SVGID_4_);}
</style>
<g>
	<g>
		<g>
			
				<linearGradient id="SVGID_1_" gradientUnits="userSpaceOnUse" x1="85.015" y1="1691.5941" x2="5.6024" y2="1698.9954" gradientTransform="matrix(1 0 0 1 0 -1650)">
				<stop  offset="0" style="stop-color:#04A9C2"/>
				<stop  offset="1" style="stop-color:#095EBD"/>
			</linearGradient>
			<path class="st0" d="M56.5,27.4c-0.1-0.4-0.4-0.8-0.8-1c-0.3-0.1-0.5-0.2-0.8-0.2c-0.6,0-1.2,0.3-1.5,0.8L33.2,62
				c-0.2,0.4-0.3,0.8-0.2,1.3c0.1,0.4,0.4,0.8,0.8,1c0.3,0.2,0.5,0.2,0.8,0.2c0.6,0,1.2-0.3,1.5-0.8l20.3-35
				C56.6,28.3,56.6,27.8,56.5,27.4z"/>
			
				<linearGradient id="SVGID_2_" gradientUnits="userSpaceOnUse" x1="84.0093" y1="1680.8033" x2="4.5966" y2="1688.2046" gradientTransform="matrix(1 0 0 1 0 -1650)">
				<stop  offset="0" style="stop-color:#04A9C2"/>
				<stop  offset="1" style="stop-color:#095EBD"/>
			</linearGradient>
			<path class="st1" d="M42.8,35.4c0-4.6-3.8-8.4-8.4-8.4s-8.4,3.8-8.4,8.4s3.8,8.4,8.4,8.4S42.8,40,42.8,35.4z M34.4,30.7
				c2.6,0,4.7,2.1,4.7,4.7s-2.1,4.7-4.7,4.7c-2.6,0-4.7-2.1-4.7-4.7C29.7,32.8,31.8,30.7,34.4,30.7z"/>
			
				<linearGradient id="SVGID_3_" gradientUnits="userSpaceOnUse" x1="86.0191" y1="1702.3683" x2="6.6065" y2="1709.7694" gradientTransform="matrix(1 0 0 1 0 -1650)">
				<stop  offset="0" style="stop-color:#04A9C2"/>
				<stop  offset="1" style="stop-color:#095EBD"/>
			</linearGradient>
			<path class="st2" d="M55.1,46.9c-4.6,0-8.4,3.8-8.4,8.4s3.8,8.4,8.4,8.4s8.4-3.8,8.4-8.4S59.7,46.9,55.1,46.9z M55.1,60
				c-2.6,0-4.7-2.1-4.7-4.7s2.1-4.7,4.7-4.7c2.6,0,4.7,2.1,4.7,4.7S57.7,60,55.1,60z"/>
		</g>
		
			<linearGradient id="SVGID_4_" gradientUnits="userSpaceOnUse" x1="84.985" y1="1691.2728" x2="5.5724" y2="1698.674" gradientTransform="matrix(1 0 0 1 0 -1650)">
			<stop  offset="0" style="stop-color:#04A9C2"/>
			<stop  offset="1" style="stop-color:#095EBD"/>
		</linearGradient>
		<path class="st3" d="M54.6,83.1c-1.7,0-3.4-0.4-5.1-0.8c-1.7-0.4-3.2-0.8-4.5-0.8c-1.4,0-2.8,0.4-4.4,0.8
			c-1.7,0.4-3.5,0.9-5.2,0.9c-1,0-1.8-0.1-2.6-0.4c-2.7-0.9-4.5-3.1-6.2-5.1c-1-1.2-2-2.4-3-3.1c-1-0.8-2.4-1.3-3.8-1.9
			c-2.5-1-5.2-2.1-6.8-4.3c-1.6-2.3-1.8-5.1-2-7.7c-0.1-1.6-0.2-3.1-0.6-4.4c-0.4-1.2-1.2-2.4-2-3.7c-1.4-2.2-3-4.7-3-7.5
			s1.6-5.4,2.9-7.5c0.8-1.3,1.6-2.5,2-3.7c0.4-1.3,0.5-2.8,0.6-4.4c0.2-2.5,0.4-5.4,2-7.7c1.6-2.3,4.3-3.3,6.7-4.3
			c1.5-0.6,2.9-1.1,3.9-1.9c1-0.8,2-1.9,3-3.1c1.7-2,3.5-4.3,6.2-5.1c0.8-0.3,1.7-0.4,2.6-0.4c1.7,0,3.5,0.4,5.2,0.9
			c1.6,0.4,3.1,0.8,4.5,0.8c1.4,0,2.8-0.4,4.4-0.8c1.7-0.4,3.4-0.9,5.2-0.9c1,0,1.8,0.1,2.6,0.4c2.7,0.9,4.6,3.1,6.2,5.1
			c1,1.2,2,2.4,3,3.1c1.1,0.8,2.4,1.3,3.9,1.9c2.4,1,5.1,2,6.7,4.3c1.6,2.3,1.8,5.1,2,7.7c0.1,1.6,0.2,3.1,0.6,4.4
			c0.4,1.2,1.2,2.4,2,3.7c1.4,2.2,2.9,4.7,2.9,7.5c0,2.9-1.6,5.4-2.9,7.5c-0.8,1.3-1.6,2.5-2,3.7c-0.4,1.3-0.5,2.8-0.6,4.4
			c-0.2,2.6-0.4,5.4-2,7.7c-1.7,2.3-4.3,3.3-6.7,4.3c-1.5,0.6-2.9,1.1-3.9,1.9c-1,0.7-2,1.9-2.9,3.1c-1.7,2-3.5,4.3-6.2,5.1
			C56.4,82.9,55.6,83.1,54.6,83.1z M45,77.6c1.8,0,3.6,0.4,5.3,0.9c1.5,0.4,3,0.8,4.3,0.8c0.5,0,1-0.1,1.5-0.2
			c1.7-0.5,3-2.2,4.5-3.9c1.1-1.4,2.3-2.7,3.7-3.8c1.4-1,3.1-1.7,4.7-2.3c2.1-0.8,4.1-1.6,5.1-3c1-1.3,1.1-3.5,1.3-5.7
			c0.1-1.8,0.2-3.6,0.8-5.3c0.5-1.6,1.5-3.1,2.4-4.6c1.2-1.9,2.4-3.7,2.4-5.5c0-1.8-1.1-3.6-2.3-5.5c-0.9-1.5-1.9-3-2.4-4.6
			c-0.6-1.7-0.7-3.5-0.8-5.3C75.1,27.4,75,25.3,74,24c-1-1.4-3-2.2-5-3c-1.6-0.6-3.3-1.3-4.8-2.4c-1.4-1-2.5-2.4-3.7-3.7
			c-1.5-1.8-2.8-3.4-4.5-3.9c-0.4-0.1-0.9-0.2-1.5-0.2c-1.3,0-2.7,0.4-4.2,0.7c-1.8,0.4-3.6,0.9-5.4,0.9c-1.8,0-3.6-0.4-5.3-0.9
			c-1.6-0.4-3-0.8-4.3-0.8c-0.5,0-1,0.1-1.5,0.2c-1.7,0.5-3,2.2-4.5,3.9c-1.1,1.4-2.3,2.7-3.7,3.8c-1.4,1-3.1,1.7-4.7,2.3
			C19,21.8,17,22.6,16,24c-1,1.4-1.1,3.5-1.3,5.7c-0.1,1.8-0.2,3.6-0.8,5.3c-0.5,1.6-1.5,3.1-2.4,4.5c-1.2,1.9-2.4,3.7-2.4,5.5
			c0,1.8,1.1,3.6,2.3,5.5c0.9,1.5,1.9,3,2.4,4.6c0.6,1.7,0.7,3.5,0.8,5.2c0.1,2.3,0.3,4.4,1.3,5.7c1,1.4,3,2.2,5,3
			c1.6,0.7,3.3,1.3,4.8,2.4c1.4,1,2.5,2.4,3.6,3.7c1.5,1.8,2.8,3.4,4.5,4c0.4,0.1,0.9,0.2,1.5,0.2c1.3,0,2.7-0.4,4.2-0.7
			C41.4,78.1,43.2,77.6,45,77.6z"/>
	</g>
</g>
</svg>
