<?xml version="1.0" encoding="utf-8"?>
<!-- Generator: Adobe Illustrator 24.0.1, SVG Export Plug-In . SVG Version: 6.00 Build 0)  -->
<svg version="1.1" id="圖層_1" xmlns="http://www.w3.org/2000/svg" xmlns:xlink="http://www.w3.org/1999/xlink" x="0px" y="0px"
	 viewBox="0 0 90 90" style="enable-background:new 0 0 90 90;" xml:space="preserve">
<style type="text/css">
	.st0{fill:url(#SVGID_1_);}
	.st1{fill:url(#SVGID_2_);}
</style>
<g>
	<g>
		
			<linearGradient id="SVGID_1_" gradientUnits="userSpaceOnUse" x1="87.4743" y1="1123.4373" x2="1.383" y2="1126.4342" gradientTransform="matrix(1 0 0 1 0 -1080)">
			<stop  offset="0" style="stop-color:#04A9C2"/>
			<stop  offset="1" style="stop-color:#095EBD"/>
		</linearGradient>
		<path class="st0" d="M43,73.9c-1.8,0-3.8-0.1-5.8-0.3c-0.9-0.1-1.7-0.9-1.7-1.8V60.8l-0.3-0.1c-0.4-0.2-0.9-0.4-1.5-0.7
			c-1.9-0.9-4.7-2.3-8.1-4.3l-0.4-0.3c-1.6-1-4.4-2.6-6.3-4l-0.4-0.3l-0.3,0.4c-0.2,0.2-0.4,0.5-0.6,0.7C14,56.6,9.1,59,3.6,59
			c-0.8,0-1.6-0.6-1.8-1.4C1.7,57.3,0,50.2,4.5,45.3L4.8,45l-0.3-0.3c-4.4-4.9-2.7-12-2.7-12.3C2,31.6,2.8,31,3.6,31
			c5.5,0,10.4,2.3,14.1,6.7c0.8,1,1.6,2.1,2.3,3.2l0.3,0.6l0.4-0.5c1.4-1.6,3.7-4.1,6.7-6.6c2.2-1.8,4.5-3.4,6.9-4.7l0.2-0.1V18.3
			c0-1,0.7-1.7,1.7-1.8c2.1-0.2,4.1-0.4,6-0.4c15.3,0,21.4,7.3,23.3,10.4l0.1,0.2l0.2,0c5.7,1.6,10.6,4.2,14.8,7.8
			c5.5,4.7,7.7,9.5,7.8,9.8c0.2,0.5,0.2,1,0,1.5c-0.1,0.2-2.3,5-7.8,9.8c-4.1,3.5-9,6.1-14.6,7.7l-0.2,0l-0.1,0.2
			C64.4,65.9,58.7,73.9,43,73.9z M39.2,70l0.4,0c1.1,0.1,2.3,0.1,3.3,0.1c8.5,0,13.5-2.6,16.2-4.7l1.3-1l-1.8,0.2
			c-0.4,0.1-0.8,0.1-1.3,0.1l-0.5,0c-0.3,0-0.7,0.1-1,0.1l-0.5,0c-0.3,0-0.7,0-1,0l-0.5,0c-0.5,0-1,0-1.5,0c-0.3,0-0.5,0-0.8,0
			c-4-0.1-7.9-0.8-11.7-2.3l-0.6-0.2C39.2,62.5,39.2,70,39.2,70z M52.3,28.7c-0.3,0-0.6,0-0.9,0l-0.9,0l-0.9,0.1l-0.4,0l-0.5,0
			l-1,0.1l-0.3,0l-0.9,0.2l-0.3,0C30,32.5,20.5,48,20.5,48l0.3,0.2c1.4,1,4.4,3,7.3,4.7c4,2.3,6.9,3.7,8.7,4.5
			c0.5,0.2,0.8,0.4,1.2,0.5c0.1,0,0.2,0.1,0.2,0.1c4,1.9,8.1,3,12.3,3.3l1,0c0.3,0,0.6,0,0.8,0c0.5,0,0.9,0,1.3,0l0.3,0
			c0.5,0,0.9,0,1.3-0.1c0.5,0,0.9-0.1,1.3-0.1l0.3,0c0.4,0,0.8-0.1,1.2-0.1l0.4,0c0.3,0,0.6-0.1,0.8-0.1c0.2,0,0.5-0.1,0.7-0.1
			c0.2,0,0.5-0.1,0.7-0.1c0.3,0,0.5-0.1,0.7-0.1c14.9-2.9,21.4-12.4,23.1-15.3l0.1-0.2l-0.1-0.2c-0.9-1.5-2.9-4.6-6.5-7.6
			c-3.9-3.3-8.6-5.7-13.9-7.1L64,30c-3.2-0.8-6.5-1.3-10-1.4l-0.2,0C53.3,28.7,52.8,28.7,52.3,28.7z M5.2,35.3
			c-0.1,2.1,0.2,5.9,3.5,8.2c0.5,0.3,0.8,0.9,0.8,1.5s-0.3,1.2-0.8,1.5c-3.3,2.2-3.6,6.1-3.5,8.2l0,0.5l0.5-0.1
			c7.6-1.1,11.1-7.9,12.1-10l0.1-0.2l-0.1-0.2c-0.9-2.1-4.4-8.9-12.1-10l-0.5-0.1L5.2,35.3z M42.3,19.8c-1.2,0-2.4,0-3.6,0.1l-0.4,0
			v7.9l0.6-0.3c3.8-1.5,7.8-2.4,11.8-2.6c0.3,0,0.5,0,0.8,0c0.3,0,0.5,0,0.8,0c0.5,0,1,0,1.4,0l0.5,0c0.3,0,0.6,0,0.9,0l0.6,0
			c0.3,0,0.5,0,0.8,0l0.7,0.1l1.2,0.1l1.7,0.2l-1.3-1c-0.2-0.1-0.4-0.3-0.6-0.4C54.1,21.2,48.8,19.8,42.3,19.8z"/>
		
			<linearGradient id="SVGID_2_" gradientUnits="userSpaceOnUse" x1="87.4973" y1="1124.1013" x2="1.4061" y2="1127.0981" gradientTransform="matrix(1 0 0 1 0 -1080)">
			<stop  offset="0" style="stop-color:#04A9C2"/>
			<stop  offset="1" style="stop-color:#095EBD"/>
		</linearGradient>
		<path class="st1" d="M61.7,33.6c-0.3,0-0.6,0.1-0.9,0.2c-4.2,2.2-6.8,6.5-6.8,11.2s2.6,9,6.8,11.2c0.3,0.1,0.6,0.2,0.9,0.2
			c0.7,0,1.3-0.4,1.6-1c0.5-0.9,0.1-2-0.8-2.5c-3-1.6-4.8-4.6-4.8-7.9s1.8-6.4,4.8-7.9c0.9-0.5,1.3-1.6,0.8-2.5
			C63,34,62.4,33.6,61.7,33.6z"/>
	</g>
</g>
</svg>
