<?xml version="1.0" encoding="utf-8"?>
<!-- Generator: Adobe Illustrator 24.0.1, SVG Export Plug-In . SVG Version: 6.00 Build 0)  -->
<svg version="1.1" id="圖層_1" xmlns="http://www.w3.org/2000/svg" xmlns:xlink="http://www.w3.org/1999/xlink" x="0px" y="0px"
	 viewBox="0 0 90 90" style="enable-background:new 0 0 90 90;" xml:space="preserve">
<style type="text/css">
	.st0{fill:url(#SVGID_1_);}
	.st1{fill:url(#SVGID_2_);}
</style>
<g>
	<g>
		
			<linearGradient id="SVGID_1_" gradientUnits="userSpaceOnUse" x1="82.4017" y1="-200.515" x2="8.753" y2="-193.1851" gradientTransform="matrix(1 0 0 1 0 250)">
			<stop  offset="0" style="stop-color:#04A9C2"/>
			<stop  offset="1" style="stop-color:#095EBD"/>
		</linearGradient>
		<path class="st0" d="M17.2,80.3c-1.1,0-2-0.9-2-2V50.4c0-0.6,0.3-1.2,0.8-1.6l28-25c0.3-0.3,0.8-0.5,1.3-0.5s0.9,0.2,1.3,0.5
			l28,25c0.5,0.4,0.8,1,0.8,1.6v27.8v0.1c0,1.1-0.9,2-2,2C73.1,80.3,17.2,80.3,17.2,80.3z M19.2,51.3v24.9h51.9V51.3l-26-23.4
			L19.2,51.3z"/>
		
			<linearGradient id="SVGID_2_" gradientUnits="userSpaceOnUse" x1="79.9885" y1="-224.7629" x2="6.3397" y2="-217.4329" gradientTransform="matrix(1 0 0 1 0 250)">
			<stop  offset="0" style="stop-color:#04A9C2"/>
			<stop  offset="1" style="stop-color:#095EBD"/>
		</linearGradient>
		<path class="st1" d="M45.2,9.7c-0.5,0-0.9,0.2-1.3,0.4L8.8,40.7C8.3,41,8.1,41.5,8,42c-0.1,0.5,0.1,1.1,0.4,1.5
			c0.4,0.5,0.9,0.8,1.6,0.8c0.5,0,0.9-0.2,1.3-0.4l33.6-29.2l0.3-0.3l0.3,0.3l33.3,29.2c0.4,0.3,0.8,0.4,1.3,0.4
			c0.6,0,1.2-0.3,1.6-0.8c0.7-0.9,0.6-2.1-0.3-2.8L46.4,10.2C46,9.9,45.6,9.7,45.2,9.7z"/>
	</g>
</g>
</svg>
