<?xml version="1.0" encoding="utf-8"?>
<!-- Generator: Adobe Illustrator 24.0.1, SVG Export Plug-In . SVG Version: 6.00 Build 0)  -->
<svg version="1.1" id="圖層_1" xmlns="http://www.w3.org/2000/svg" xmlns:xlink="http://www.w3.org/1999/xlink" x="0px" y="0px"
	 viewBox="0 0 90 90" style="enable-background:new 0 0 90 90;" xml:space="preserve">
<style type="text/css">
	.st0{fill:url(#SVGID_1_);}
	.st1{fill:url(#SVGID_2_);}
	.st2{fill:url(#SVGID_3_);}
	.st3{fill:url(#SVGID_4_);}
	.st4{fill:url(#SVGID_5_);}
	.st5{fill:url(#SVGID_6_);}
	.st6{fill:url(#SVGID_7_);}
	.st7{fill:url(#SVGID_8_);}
	.st8{fill:url(#SVGID_9_);}
	.st9{fill:url(#SVGID_10_);}
	.st10{fill:url(#SVGID_11_);}
	.st11{fill:url(#SVGID_12_);}
	.st12{fill:url(#SVGID_13_);}
	.st13{fill:url(#SVGID_14_);}
	.st14{fill:url(#SVGID_15_);}
	.st15{fill:url(#SVGID_16_);}
	.st16{fill:url(#SVGID_17_);}
</style>
<g>
	<g>
		
			<linearGradient id="SVGID_1_" gradientUnits="userSpaceOnUse" x1="81.6685" y1="1337.5242" x2="6.8558" y2="1335.5237" gradientTransform="matrix(1 0 0 1 0 -1270)">
			<stop  offset="0" style="stop-color:#04A9C2"/>
			<stop  offset="1" style="stop-color:#095EBD"/>
		</linearGradient>
		<path class="st0" d="M55.7,66.7c0,2.1-1.7,3.7-3.7,3.7c-2.1,0-3.7-1.7-3.7-3.7c0-2.1,1.7-3.7,3.7-3.7C54,63,55.7,64.7,55.7,66.7z"
			/>
		
			<linearGradient id="SVGID_2_" gradientUnits="userSpaceOnUse" x1="82.0221" y1="1324.2991" x2="7.2094" y2="1322.2987" gradientTransform="matrix(1 0 0 1 0 -1270)">
			<stop  offset="0" style="stop-color:#04A9C2"/>
			<stop  offset="1" style="stop-color:#095EBD"/>
		</linearGradient>
		<path class="st1" d="M73.8,54c0,2.1-1.7,3.7-3.7,3.7c-2.1,0-3.7-1.7-3.7-3.7c0-2.1,1.7-3.7,3.7-3.7C72.2,50.2,73.8,51.9,73.8,54z"
			/>
		
			<linearGradient id="SVGID_3_" gradientUnits="userSpaceOnUse" x1="82.4977" y1="1306.5131" x2="7.685" y2="1304.5127" gradientTransform="matrix(1 0 0 1 0 -1270)">
			<stop  offset="0" style="stop-color:#04A9C2"/>
			<stop  offset="1" style="stop-color:#095EBD"/>
		</linearGradient>
		<path class="st2" d="M29.6,35c0,2.1-1.7,3.7-3.7,3.7c-2.1,0-3.7-1.7-3.7-3.7c0-2.1,1.7-3.7,3.7-3.7C28,31.3,29.6,32.9,29.6,35z"/>
		
			<linearGradient id="SVGID_4_" gradientUnits="userSpaceOnUse" x1="82.052" y1="1323.1853" x2="7.2392" y2="1321.1851" gradientTransform="matrix(1 0 0 1 0 -1270)">
			<stop  offset="0" style="stop-color:#04A9C2"/>
			<stop  offset="1" style="stop-color:#095EBD"/>
		</linearGradient>
		<path class="st3" d="M24.6,51.5c0,2.1-1.7,3.7-3.7,3.7c-2.1,0-3.7-1.7-3.7-3.7c0-2.1,1.7-3.7,3.7-3.7C23,47.8,24.6,49.5,24.6,51.5
			z"/>
		
			<linearGradient id="SVGID_5_" gradientUnits="userSpaceOnUse" x1="82.2012" y1="1317.6" x2="7.3885" y2="1315.5996" gradientTransform="matrix(1 0 0 1 0 -1270)">
			<stop  offset="0" style="stop-color:#04A9C2"/>
			<stop  offset="1" style="stop-color:#095EBD"/>
		</linearGradient>
		<path class="st4" d="M64.3,47c0,2.1-1.7,3.7-3.7,3.7c-2.1,0-3.7-1.7-3.7-3.7c0-2.1,1.7-3.7,3.7-3.7C62.6,43.3,64.3,45,64.3,47z"/>
		
			<linearGradient id="SVGID_6_" gradientUnits="userSpaceOnUse" x1="81.8847" y1="1329.4387" x2="7.072" y2="1327.4385" gradientTransform="matrix(1 0 0 1 0 -1270)">
			<stop  offset="0" style="stop-color:#04A9C2"/>
			<stop  offset="1" style="stop-color:#095EBD"/>
		</linearGradient>
		<path class="st5" d="M45.3,58.4c0,2.1-1.7,3.7-3.7,3.7c-2.1,0-3.7-1.7-3.7-3.7c0-2.1,1.7-3.7,3.7-3.7
			C43.6,54.6,45.3,56.3,45.3,58.4z"/>
		
			<linearGradient id="SVGID_7_" gradientUnits="userSpaceOnUse" x1="82.3225" y1="1313.0648" x2="7.5098" y2="1311.0645" gradientTransform="matrix(1 0 0 1 0 -1270)">
			<stop  offset="0" style="stop-color:#04A9C2"/>
			<stop  offset="1" style="stop-color:#095EBD"/>
		</linearGradient>
		<path class="st6" d="M75.4,42.8c0,2.1-1.7,3.7-3.7,3.7c-2.1,0-3.7-1.7-3.7-3.7c0-2.1,1.7-3.7,3.7-3.7C73.7,39,75.4,40.7,75.4,42.8
			z"/>
		
			<linearGradient id="SVGID_8_" gradientUnits="userSpaceOnUse" x1="82.9129" y1="1290.9871" x2="8.1001" y2="1288.9868" gradientTransform="matrix(1 0 0 1 0 -1270)">
			<stop  offset="0" style="stop-color:#04A9C2"/>
			<stop  offset="1" style="stop-color:#095EBD"/>
		</linearGradient>
		<path class="st7" d="M59.5,20.3c0,2.1-1.7,3.7-3.7,3.7c-2.1,0-3.7-1.7-3.7-3.7c0-2.1,1.7-3.7,3.7-3.7S59.5,18.2,59.5,20.3z"/>
		
			<linearGradient id="SVGID_9_" gradientUnits="userSpaceOnUse" x1="82.3885" y1="1310.5997" x2="7.5758" y2="1308.5994" gradientTransform="matrix(1 0 0 1 0 -1270)">
			<stop  offset="0" style="stop-color:#04A9C2"/>
			<stop  offset="1" style="stop-color:#095EBD"/>
		</linearGradient>
		<path class="st8" d="M45,46.9c-4,0-7.3-3.3-7.3-7.3s3.3-7.3,7.3-7.3s7.3,3.3,7.3,7.3C52.3,43.6,49,46.9,45,46.9z M45,35.4
			c-2.3,0-4.2,1.9-4.2,4.2s1.9,4.2,4.2,4.2s4.2-1.9,4.2-4.2S47.3,35.4,45,35.4z"/>
		<g>
			<g>
				
					<linearGradient id="SVGID_10_" gradientUnits="userSpaceOnUse" x1="81.8745" y1="1329.8214" x2="7.0617" y2="1327.821" gradientTransform="matrix(1 0 0 1 0 -1270)">
					<stop  offset="0" style="stop-color:#04A9C2"/>
					<stop  offset="1" style="stop-color:#095EBD"/>
				</linearGradient>
				<path class="st9" d="M14.8,78.2c-0.3,0-0.6-0.1-0.9-0.3c-0.7-0.5-0.9-1.4-0.4-2.2l24.4-36.6c0.5-0.7,1.5-0.9,2.2-0.4
					c0.7,0.5,0.9,1.5,0.4,2.2L16.1,77.5C15.8,78,15.3,78.2,14.8,78.2z"/>
				
					<linearGradient id="SVGID_11_" gradientUnits="userSpaceOnUse" x1="81.8117" y1="1332.1676" x2="6.999" y2="1330.1674" gradientTransform="matrix(1 0 0 1 0 -1270)">
					<stop  offset="0" style="stop-color:#04A9C2"/>
					<stop  offset="1" style="stop-color:#095EBD"/>
				</linearGradient>
				<path class="st10" d="M22.3,78.2c-0.3,0-0.6-0.1-0.9-0.3c-0.7-0.5-0.9-1.4-0.5-2.2l20.7-31.6c0.5-0.7,1.5-0.9,2.2-0.5
					c0.7,0.5,0.9,1.4,0.5,2.2L23.6,77.5C23.3,78,22.8,78.2,22.3,78.2z"/>
				
					<linearGradient id="SVGID_12_" gradientUnits="userSpaceOnUse" x1="81.2865" y1="1351.813" x2="6.4737" y2="1349.8127" gradientTransform="matrix(1 0 0 1 0 -1270)">
					<stop  offset="0" style="stop-color:#04A9C2"/>
					<stop  offset="1" style="stop-color:#095EBD"/>
				</linearGradient>
				<path class="st11" d="M24.2,85.2H12.5c-2.8,0-5-2.3-5-5s2.3-5,5-5h11.7c2.8,0,5,2.3,5,5C29.2,82.9,27,85.2,24.2,85.2z
					 M12.5,78.2c-1,0-1.9,0.8-1.9,1.9c0,1.1,0.9,1.9,1.9,1.9h11.7c1,0,1.9-0.8,1.9-1.9c0-1-0.9-1.9-1.9-1.9H12.5z"/>
			</g>
			<g>
				
					<linearGradient id="SVGID_13_" gradientUnits="userSpaceOnUse" x1="81.9002" y1="1328.8568" x2="7.0875" y2="1326.8566" gradientTransform="matrix(1 0 0 1 0 -1270)">
					<stop  offset="0" style="stop-color:#04A9C2"/>
					<stop  offset="1" style="stop-color:#095EBD"/>
				</linearGradient>
				<path class="st12" d="M75.2,78.2c-0.5,0-1-0.2-1.3-0.7L49.6,40.9c-0.5-0.7-0.3-1.7,0.4-2.2c0.7-0.5,1.7-0.3,2.2,0.4l24.4,36.6
					c0.5,0.7,0.3,1.7-0.4,2.2C75.8,78.2,75.5,78.2,75.2,78.2z"/>
				
					<linearGradient id="SVGID_14_" gradientUnits="userSpaceOnUse" x1="81.8295" y1="1331.5023" x2="7.0168" y2="1329.5021" gradientTransform="matrix(1 0 0 1 0 -1270)">
					<stop  offset="0" style="stop-color:#04A9C2"/>
					<stop  offset="1" style="stop-color:#095EBD"/>
				</linearGradient>
				<path class="st13" d="M67.7,78.2c-0.5,0-1-0.3-1.3-0.7L45.7,45.9c-0.5-0.7-0.3-1.7,0.5-2.2c0.7-0.5,1.7-0.3,2.2,0.5L69,75.8
					c0.5,0.7,0.3,1.7-0.5,2.2C68.3,78.2,68,78.2,67.7,78.2z"/>
				
					<linearGradient id="SVGID_15_" gradientUnits="userSpaceOnUse" x1="81.3245" y1="1350.3884" x2="6.5119" y2="1348.3882" gradientTransform="matrix(1 0 0 1 0 -1270)">
					<stop  offset="0" style="stop-color:#04A9C2"/>
					<stop  offset="1" style="stop-color:#095EBD"/>
				</linearGradient>
				<path class="st14" d="M77.5,85.2H65.8c-2.8,0-5-2.3-5-5s2.3-5,5-5h11.7c2.8,0,5,2.3,5,5S80.3,85.2,77.5,85.2z M65.8,78.2
					c-1,0-1.9,0.8-1.9,1.9c0,1.1,0.8,1.9,1.9,1.9h11.7c1,0,1.9-0.8,1.9-1.9c0-1-0.8-1.9-1.9-1.9H65.8z"/>
			</g>
		</g>
		
			<linearGradient id="SVGID_16_" gradientUnits="userSpaceOnUse" x1="82.5041" y1="1306.2733" x2="7.6914" y2="1304.2729" gradientTransform="matrix(1 0 0 1 0 -1270)">
			<stop  offset="0" style="stop-color:#04A9C2"/>
			<stop  offset="1" style="stop-color:#095EBD"/>
		</linearGradient>
		<path class="st15" d="M22.8,65.5c-0.5,0-1-0.2-1.4-0.6L9.5,52.5C9.1,52.1,9,51.6,9,51.2V26.3c0-0.5,0.2-1,0.5-1.3L29,5.4
			c0.4-0.4,0.8-0.6,1.3-0.6h29.4c0.5,0,1,0.2,1.3,0.6L80.5,25c0.3,0.4,0.5,0.8,0.5,1.3v24.8c0,0.5-0.2,1-0.5,1.3L68.7,64.8
			c-0.7,0.8-1.9,0.8-2.7,0.1S65.2,63,66,62.2l11.3-11.9V27.1L58.9,8.6H31.1L12.7,27.1v23.3l11.4,11.9c0.7,0.8,0.7,1.9-0.1,2.7
			C23.7,65.3,23.3,65.5,22.8,65.5z"/>
		
			<linearGradient id="SVGID_17_" gradientUnits="userSpaceOnUse" x1="81.5844" y1="1340.674" x2="6.7716" y2="1338.6735" gradientTransform="matrix(1 0 0 1 0 -1270)">
			<stop  offset="0" style="stop-color:#04A9C2"/>
			<stop  offset="1" style="stop-color:#095EBD"/>
		</linearGradient>
		<path class="st16" d="M59.7,72.6H30.3c-0.5,0-0.9-0.2-1.3-0.5L26.7,70c-0.8-0.7-0.8-1.9-0.1-2.7c0.7-0.8,1.9-0.8,2.7-0.1l1.7,1.6
			h27.9l1.6-1.5c0.8-0.7,1.9-0.7,2.7,0.1c0.7,0.8,0.7,1.9-0.1,2.7l-2.1,2C60.6,72.4,60.2,72.6,59.7,72.6z"/>
	</g>
</g>
</svg>
