<?xml version="1.0" encoding="utf-8"?>
<!-- Generator: Adobe Illustrator 24.0.1, SVG Export Plug-In . SVG Version: 6.00 Build 0)  -->
<svg version="1.1" id="圖層_1" xmlns="http://www.w3.org/2000/svg" xmlns:xlink="http://www.w3.org/1999/xlink" x="0px" y="0px"
	 viewBox="0 0 90 90" style="enable-background:new 0 0 90 90;" xml:space="preserve">
<style type="text/css">
	.st0{fill:url(#SVGID_1_);}
	.st1{fill:url(#SVGID_2_);}
	.st2{fill:url(#SVGID_3_);}
	.st3{fill:url(#SVGID_4_);}
	.st4{fill:url(#SVGID_5_);}
	.st5{fill:url(#SVGID_6_);}
	.st6{fill:url(#SVGID_7_);}
</style>
<g>
	<g>
		
			<linearGradient id="SVGID_1_" gradientUnits="userSpaceOnUse" x1="57.8994" y1="-308.8742" x2="-9.7913" y2="-308.1881" gradientTransform="matrix(1.0401 0 0 -1.0401 14.2553 -275.8542)">
			<stop  offset="0" style="stop-color:#04A9C2"/>
			<stop  offset="1" style="stop-color:#095EBD"/>
		</linearGradient>
		<path class="st0" d="M84.3,46.2L78.1,34c-1.2-2.4-4.1-3.5-6.6-2.4c-2.3,1-3.8,3.7-2.7,6.5l2.6,6.9c-2-0.3-3.9,0.6-5.1,2.3V19.9
			c0-0.4-0.2-0.8-0.4-1.1L51.8,4.7c-0.3-0.3-0.7-0.4-1.1-0.4H43H30.8c-3.9,0-7.1,3.2-7.1,7.1v36c-1.1-1.7-3.1-2.6-5.1-2.3l2.6-6.9
			c1-2.8-0.4-5.5-2.7-6.5c-2.5-1.1-5.4,0-6.6,2.4L5.7,46.3C4,49.6,4,53.6,5.7,57l8.9,18.1c-1.8,0.8-3,2.6-3,4.7l0,4.2
			c0,0.9,0.8,1.7,1.7,1.7l22.9,0.1c0.9,0,1.7-0.8,1.7-1.7l0-4.2c0-1.7-0.8-3.2-2.1-4.2l1.2-4.2c1.2-4.3-0.2-8.8-3.3-11.8h22.8
			c-3.1,3-4.5,7.5-3.3,11.8l1.2,4.2c-1.4,1-2.1,2.5-2.1,4.2l0,4.2c0,0.9,0.8,1.7,1.7,1.7l22.9-0.1c0.9,0,1.7-0.8,1.7-1.7l0-4.2
			c0-2.1-1.3-3.8-3-4.7L84.4,57C86,53.6,86,49.6,84.3,46.2z M52.2,9.4l9,9h-4.9c-2.2,0-4.1-1.8-4.1-4.1V9.4z M26.7,11.4
			c0-2.2,1.8-4.1,4.1-4.1h18.4v7.1c0,3.9,3.2,7.1,7.1,7.1h7l0,31.1c0,0.4-0.1,0.8-0.3,1.3l-0.4,0.8c-0.7,1.2-2,2-3.4,2H30.8
			c-1.5,0-2.7-0.8-3.4-2L27,53.8c-0.1-0.4-0.3-0.8-0.3-1.3C26.7,52.5,26.7,11.4,26.7,11.4z M34.5,79.8l0,2.5L15,82.2l0-2.5
			c0-0.9,0.8-1.7,1.7-1.7l16.1,0.1C33.7,78.1,34.5,78.9,34.5,79.8z M33.6,70.5l-1.1,4.2l-14.3-0.1L8.7,55.4c-1.2-2.4-1.2-5.3,0-7.7
			l6.2-12.2c0.4-0.8,1.3-1.2,2.2-0.8c0.8,0.3,1.3,1.2,1,2.2l-3.9,10.3c-0.5,1.3-0.4,2.8,0.2,4.1l4.4,8.9c0.4,0.8,1.4,1.2,2.3,0.8
			c0.8-0.4,1.2-1.4,0.8-2.3l-3.9-7.8c-0.4-0.8-0.1-1.9,0.8-2.3c0.8-0.4,1.9-0.1,2.3,0.8l4,8c0.5,1.1,1.4,2,3.7,3
			C32.6,62,34.7,66.4,33.6,70.5z M55.5,82.4l0-2.5c0-0.9,0.8-1.7,1.7-1.7L73.3,78c0.9,0,1.7,0.8,1.7,1.7l0,2.5L55.5,82.4z
			 M81.3,55.4l-9.5,19.2l-14.3,0.1l-1.1-4.2c-1.1-4.1,1-8.5,5-10.1c2.3-1,3.1-1.9,3.7-3l4-8c0.4-0.8,1.4-1.2,2.3-0.8
			c0.8,0.4,1.2,1.4,0.8,2.3l-3.9,7.8c-0.4,0.8-0.1,1.9,0.8,2.3s1.9,0.1,2.3-0.8l4.4-8.9c0.6-1.3,0.7-2.8,0.2-4.1L72,37
			c-0.4-0.9,0.2-1.9,1-2.2c0.8-0.3,1.8,0,2.2,0.8l6.2,12.2C82.4,50.2,82.5,53,81.3,55.4z"/>
		
			<linearGradient id="SVGID_2_" gradientUnits="userSpaceOnUse" x1="58.0761" y1="-291.4419" x2="-9.6148" y2="-290.7557" gradientTransform="matrix(1.0401 0 0 -1.0401 14.2553 -275.8542)">
			<stop  offset="0" style="stop-color:#04A9C2"/>
			<stop  offset="1" style="stop-color:#095EBD"/>
		</linearGradient>
		<path class="st1" d="M40.4,28.4h12.4c0.8,0,1.4-0.6,1.4-1.4s-0.6-1.4-1.4-1.4H40.4c-0.8,0-1.4,0.6-1.4,1.4S39.6,28.4,40.4,28.4z"
			/>
		
			<linearGradient id="SVGID_3_" gradientUnits="userSpaceOnUse" x1="57.9875" y1="-300.177" x2="-9.7032" y2="-299.4909" gradientTransform="matrix(1.0401 0 0 -1.0401 14.2553 -275.8542)">
			<stop  offset="0" style="stop-color:#04A9C2"/>
			<stop  offset="1" style="stop-color:#095EBD"/>
		</linearGradient>
		<path class="st2" d="M40.4,37.5h15.2c0.8,0,1.4-0.6,1.4-1.4s-0.6-1.4-1.4-1.4H40.4c-0.8,0-1.4,0.6-1.4,1.4
			C39,36.9,39.6,37.5,40.4,37.5z"/>
		
			<linearGradient id="SVGID_4_" gradientUnits="userSpaceOnUse" x1="57.8995" y1="-308.8675" x2="-9.7914" y2="-308.1815" gradientTransform="matrix(1.0401 0 0 -1.0401 14.2553 -275.8542)">
			<stop  offset="0" style="stop-color:#04A9C2"/>
			<stop  offset="1" style="stop-color:#095EBD"/>
		</linearGradient>
		<path class="st3" d="M40.4,46.5h15.2c0.8,0,1.4-0.6,1.4-1.4s-0.6-1.4-1.4-1.4H40.4c-0.8,0-1.4,0.6-1.4,1.4
			C39,45.9,39.6,46.5,40.4,46.5z"/>
		
			<linearGradient id="SVGID_5_" gradientUnits="userSpaceOnUse" x1="68.7231" y1="-290.5827" x2="-9.7697" y2="-291.5098" gradientTransform="matrix(1.0401 0 0 -1.0401 14.2553 -275.8542)">
			<stop  offset="0" style="stop-color:#04A9C2"/>
			<stop  offset="1" style="stop-color:#095EBD"/>
		</linearGradient>
		<path class="st4" d="M34.2,28.9c1.1,0,2-0.9,2-2c0-1.1-0.9-2-2-2c-1.1,0-2,0.9-2,2C32.2,28.1,33.1,28.9,34.2,28.9z"/>
		
			<linearGradient id="SVGID_6_" gradientUnits="userSpaceOnUse" x1="68.8264" y1="-299.3303" x2="-9.6664" y2="-300.2574" gradientTransform="matrix(1.0401 0 0 -1.0401 14.2553 -275.8542)">
			<stop  offset="0" style="stop-color:#04A9C2"/>
			<stop  offset="1" style="stop-color:#095EBD"/>
		</linearGradient>
		<circle class="st5" cx="34.1" cy="36.1" r="2"/>
		
			<linearGradient id="SVGID_7_" gradientUnits="userSpaceOnUse" x1="68.9291" y1="-308.0302" x2="-9.5635" y2="-308.9572" gradientTransform="matrix(1.0401 0 0 -1.0401 14.2553 -275.8542)">
			<stop  offset="0" style="stop-color:#04A9C2"/>
			<stop  offset="1" style="stop-color:#095EBD"/>
		</linearGradient>
		<path class="st6" d="M34.1,47.1c1.1,0,2-0.9,2-2c0-1.1-0.9-2-2-2c-1.1,0-2,0.9-2,2C32.2,46.2,33.1,47.1,34.1,47.1z"/>
	</g>
</g>
</svg>
