<?xml version="1.0" encoding="utf-8"?>
<!-- Generator: Adobe Illustrator 24.0.1, SVG Export Plug-In . SVG Version: 6.00 Build 0)  -->
<svg version="1.1" id="圖層_1" xmlns="http://www.w3.org/2000/svg" xmlns:xlink="http://www.w3.org/1999/xlink" x="0px" y="0px"
	 viewBox="0 0 90 90" style="enable-background:new 0 0 90 90;" xml:space="preserve">
<style type="text/css">
	.st0{fill:url(#SVGID_1_);}
	.st1{fill:url(#SVGID_2_);}
	.st2{fill:url(#SVGID_3_);}
	.st3{fill:url(#SVGID_4_);}
	.st4{fill:url(#SVGID_5_);}
	.st5{fill:url(#SVGID_6_);}
	.st6{fill:url(#SVGID_7_);}
	.st7{fill:url(#SVGID_8_);}
	.st8{fill:url(#SVGID_9_);}
	.st9{fill:url(#SVGID_10_);}
	.st10{fill:url(#SVGID_11_);}
	.st11{fill:url(#SVGID_12_);}
</style>
<g>
	<g>
		
			<linearGradient id="SVGID_1_" gradientUnits="userSpaceOnUse" x1="88.5068" y1="747.4437" x2="1.4799" y2="751.4236" gradientTransform="matrix(1 0 0 1 0 -700)">
			<stop  offset="0" style="stop-color:#04A9C2"/>
			<stop  offset="1" style="stop-color:#095EBD"/>
		</linearGradient>
		<path class="st0" d="M71.6,58.8c0-1,0.8-1.8,1.8-1.8h5.3c2.3,0,2.7-0.4,2.7-2.6V36.8c0-1,0.8-1.8,1.8-1.8s1.8,0.8,1.8,1.8v17.6
			c0,5.5-3.6,6.1-6.3,6.1h-5.3C72.4,60.5,71.6,59.7,71.6,58.8z"/>
		
			<linearGradient id="SVGID_2_" gradientUnits="userSpaceOnUse" x1="87.7758" y1="731.4572" x2="0.7489" y2="735.4371" gradientTransform="matrix(1 0 0 1 0 -700)">
			<stop  offset="0" style="stop-color:#04A9C2"/>
			<stop  offset="1" style="stop-color:#095EBD"/>
		</linearGradient>
		<path class="st1" d="M83.3,26.1c-3.1,0-5.5,2.5-5.5,5.5s2.5,5.5,5.5,5.5c3.1,0,5.5-2.5,5.5-5.5C88.9,28.6,86.4,26.1,83.3,26.1z
			 M83.3,34c-1.3,0-2.4-1.1-2.4-2.4s1.1-2.4,2.4-2.4s2.4,1.1,2.4,2.4C85.7,33,84.7,34,83.3,34z"/>
		<g>
			
				<linearGradient id="SVGID_3_" gradientUnits="userSpaceOnUse" x1="88.7717" y1="753.2372" x2="1.7448" y2="757.217" gradientTransform="matrix(1 0 0 1 0 -700)">
				<stop  offset="0" style="stop-color:#04A9C2"/>
				<stop  offset="1" style="stop-color:#095EBD"/>
			</linearGradient>
			<path class="st2" d="M11.2,71.1c-0.7,0-1.3-0.6-1.3-1.3V43.2c0-0.7,0.6-1.3,1.3-1.3h12.3c0.7,0,1.3,0.6,1.3,1.3v26.6
				c0,0.7-0.6,1.3-1.3,1.3L11.2,71.1L11.2,71.1z M22.2,68.5v-24h-9.7v24H22.2z"/>
			
				<linearGradient id="SVGID_4_" gradientUnits="userSpaceOnUse" x1="88.8573" y1="755.1094" x2="1.8305" y2="759.0893" gradientTransform="matrix(1 0 0 1 0 -700)">
				<stop  offset="0" style="stop-color:#04A9C2"/>
				<stop  offset="1" style="stop-color:#095EBD"/>
			</linearGradient>
			<path class="st3" d="M52.2,71.1c-0.7,0-1.3-0.6-1.3-1.3V43.2c0-0.7,0.6-1.3,1.3-1.3h12.3c0.7,0,1.3,0.6,1.3,1.3v26.6
				c0,0.7-0.6,1.3-1.3,1.3L52.2,71.1L52.2,71.1z M63.2,68.5v-24h-9.7v24H63.2z"/>
			
				<linearGradient id="SVGID_5_" gradientUnits="userSpaceOnUse" x1="88.8146" y1="754.1732" x2="1.7877" y2="758.1531" gradientTransform="matrix(1 0 0 1 0 -700)">
				<stop  offset="0" style="stop-color:#04A9C2"/>
				<stop  offset="1" style="stop-color:#095EBD"/>
			</linearGradient>
			<path class="st4" d="M31.7,71.1c-0.7,0-1.3-0.6-1.3-1.3V43.2c0-0.7,0.6-1.3,1.3-1.3H44c0.7,0,1.3,0.6,1.3,1.3v26.6
				c0,0.7-0.6,1.3-1.3,1.3L31.7,71.1L31.7,71.1z M42.7,68.5v-24H33v24H42.7z"/>
		</g>
		
			<linearGradient id="SVGID_6_" gradientUnits="userSpaceOnUse" x1="88.8146" y1="754.1734" x2="1.7877" y2="758.1533" gradientTransform="matrix(1 0 0 1 0 -700)">
			<stop  offset="0" style="stop-color:#04A9C2"/>
			<stop  offset="1" style="stop-color:#095EBD"/>
		</linearGradient>
		<path class="st5" d="M66.8,32.8H8.9c-4.3,0-7.7,3.5-7.7,7.7v31.9c0,4.3,3.5,7.7,7.7,7.7h57.9c4.3,0,7.7-3.5,7.7-7.7V40.6
			C74.5,36.3,71.1,32.8,66.8,32.8z M70.9,72.4c0,2.3-1.8,4.1-4.1,4.1H8.9c-2.2,0-4.1-1.8-4.1-3.3V40.6c0-2.3,1.8-4.1,4.1-4.1h57.9
			c2.2,0,4.1,1.8,4.1,3.3L70.9,72.4z"/>
		
			<linearGradient id="SVGID_7_" gradientUnits="userSpaceOnUse" x1="86.9005" y1="712.3187" x2="-0.128" y2="716.2986" gradientTransform="matrix(1 0 0 1 0 -700)">
			<stop  offset="0" style="stop-color:#04A9C2"/>
			<stop  offset="1" style="stop-color:#095EBD"/>
		</linearGradient>
		<path class="st6" d="M37.9,19.3c-0.8,0-1.5-0.7-1.5-1.5v-6.5c0-0.8,0.7-1.5,1.5-1.5s1.5,0.7,1.5,1.5v6.5
			C39.4,18.6,38.7,19.3,37.9,19.3z"/>
		
			<linearGradient id="SVGID_8_" gradientUnits="userSpaceOnUse" x1="87.1881" y1="718.6072" x2="0.1612" y2="722.5872" gradientTransform="matrix(1 0 0 1 0 -700)">
			<stop  offset="0" style="stop-color:#04A9C2"/>
			<stop  offset="1" style="stop-color:#095EBD"/>
		</linearGradient>
		<path class="st7" d="M19.5,24.8c-0.4,0-0.8-0.1-1-0.4l-3-3.1c-0.3-0.3-0.4-0.6-0.4-1c0-0.4,0.1-0.8,0.4-1c0.3-0.3,0.6-0.4,1-0.4
			c0.4,0,0.8,0.1,1,0.4l3,3.1c0.3,0.3,0.4,0.6,0.4,1c0,0.4-0.1,0.8-0.4,1C20.3,24.6,19.9,24.8,19.5,24.8z"/>
		
			<linearGradient id="SVGID_9_" gradientUnits="userSpaceOnUse" x1="87.271" y1="720.42" x2="0.2441" y2="724.3998" gradientTransform="matrix(1 0 0 1 0 -700)">
			<stop  offset="0" style="stop-color:#04A9C2"/>
			<stop  offset="1" style="stop-color:#095EBD"/>
		</linearGradient>
		<path class="st8" d="M56.2,24.8c0.4,0,0.8-0.1,1-0.4l3-3.1c0.3-0.3,0.4-0.6,0.4-1c0-0.4-0.2-0.8-0.4-1s-0.6-0.4-1-0.4
			c-0.4,0-0.8,0.1-1,0.4l-3,3.1c-0.3,0.3-0.4,0.6-0.4,1c0,0.4,0.2,0.8,0.4,1C55.5,24.6,55.8,24.8,56.2,24.8z"/>
		
			<linearGradient id="SVGID_10_" gradientUnits="userSpaceOnUse" x1="86.9605" y1="713.6299" x2="-6.642645e-02" y2="717.6098" gradientTransform="matrix(1 0 0 1 0 -700)">
			<stop  offset="0" style="stop-color:#04A9C2"/>
			<stop  offset="1" style="stop-color:#095EBD"/>
		</linearGradient>
		<path class="st9" d="M28.5,20.8c-0.6,0-1.1-0.3-1.3-0.8L24.4,14c-0.2-0.4-0.2-0.8-0.1-1.1c0.1-0.4,0.4-0.7,0.8-0.8
			c0.2-0.1,0.4-0.1,0.6-0.1c0.6,0,1.1,0.3,1.3,0.8l2.8,5.9c0.2,0.4,0.2,0.8,0.1,1.1c-0.1,0.4-0.4,0.7-0.8,0.8
			C29,20.7,28.8,20.8,28.5,20.8z"/>
		
			<linearGradient id="SVGID_11_" gradientUnits="userSpaceOnUse" x1="87.0045" y1="714.5913" x2="-2.242942e-02" y2="718.5712" gradientTransform="matrix(1 0 0 1 0 -700)">
			<stop  offset="0" style="stop-color:#04A9C2"/>
			<stop  offset="1" style="stop-color:#095EBD"/>
		</linearGradient>
		<path class="st10" d="M46.8,20.8c-0.2,0-0.4,0-0.6-0.1c-0.7-0.3-1-1.2-0.7-2l2.8-5.9c0.2-0.5,0.8-0.8,1.3-0.8
			c0.2,0,0.4,0.1,0.6,0.1c0.3,0.2,0.6,0.5,0.8,0.8s0.1,0.8-0.1,1.1l-2.8,5.9C47.9,20.5,47.4,20.8,46.8,20.8z"/>
		
			<linearGradient id="SVGID_12_" gradientUnits="userSpaceOnUse" x1="87.6156" y1="727.9553" x2="0.5887" y2="731.9352" gradientTransform="matrix(1 0 0 1 0 -700)">
			<stop  offset="0" style="stop-color:#04A9C2"/>
			<stop  offset="1" style="stop-color:#095EBD"/>
		</linearGradient>
		<path class="st11" d="M63.5,35.5H12.3l1.8-2.3c4.7-5.8,13.8-9.4,23.8-9.4s19.2,3.6,23.8,9.4L63.5,35.5z M18.4,32.7h38.9
			c-4.5-3.9-11.7-6.1-19.5-6.1S23,28.9,18.4,32.7z"/>
	</g>
</g>
</svg>
