<svg width="90" height="90" class="beta-sports" xmlns="http://www.w3.org/2000/svg" viewBox="0 0 90 90" xmlns:xlink="http://www.w3.org/1999/xlink"><style>
	 .beta-sports .st0{fill:url(#beta-sports--SVGID_1_);}
</style><g fill=""><g><g><linearGradient id="beta-sports--SVGID_1_" gradientUnits="userSpaceOnUse" x1="74.0142" y1="-505.2905" x2="7.0961" y2="-505.604" gradientTransform="matrix(1.0958 0 0 1.0958 -9.580000e-02 599.4172)"><stop offset="0" style="stop-color: rgb(4, 169, 194);"></stop><stop offset="1" style="stop-color: rgb(9, 94, 189);"></stop></linearGradient><path class="st0" d="M44.8,82.6c-20.4,0-37-16.6-37-37s16.6-37,37-37s37,16.6,37,37C81.8,65.9,65.2,82.6,44.8,82.6z M44.8,12 c-18.5,0-33.5,15-33.5,33.5s15,33.5,33.5,33.5s33.5-15,33.5-33.5S63.2,12,44.8,12z" fill="url(&quot;#beta-sports--SVGID_1_&quot;)"></path><linearGradient id="beta-sports--SVGID_00000160890710492574802160000014303154398513720998_" gradientUnits="userSpaceOnUse" x1="103.7158" y1="44.2283" x2="-15.8948" y2="43.6679"><stop offset="0" style="stop-color: rgb(4, 169, 194);"></stop><stop offset="1" style="stop-color: rgb(9, 94, 189);"></stop></linearGradient><path d="M56.2,57.7l4.1-12.5 c0.1-0.5,0.2-0.9,0.2-1.4l9.8-2.4l-0.7-2.8l-9.8,2.4c-0.3-0.6-0.8-1.1-1.3-1.5l-10.6-7.7c-0.5-0.3-1-0.6-1.5-0.7V20.4h-2.9v10.8 c-0.5,0.2-1,0.4-1.5,0.7l-10.6,7.7c-0.6,0.4-1,0.9-1.4,1.5l-10-2.5l-0.7,2.8l10,2.5c0,0.4,0.1,0.9,0.2,1.3l4.1,12.5 c0.1,0.4,0.3,0.7,0.5,1.1l-5.5,6.9l2.3,1.8l5.4-6.8c0.7,0.3,1.4,0.5,2.1,0.5l13.1,0c0.8,0,1.6-0.2,2.3-0.5l5.4,6.8l2.3-1.8l-5.6-7 C55.9,58.3,56.1,58,56.2,57.7z M38.3,58.4c-1,0-1.9-0.6-2.2-1.6l-4.1-12.5c-0.3-0.9,0-2,0.8-2.6l10.6-7.7c0.4-0.3,0.9-0.4,1.3-0.4 s1,0.2,1.4,0.4l10.6,7.7c0.8,0.6,1.1,1.6,0.8,2.6l-4.1,12.5c-0.3,0.9-1.2,1.6-2.2,1.6H38.3z" style="" fill="url(&quot;#beta-sports--SVGID_00000160890710492574802160000014303154398513720998_&quot;)"></path></g></g><g><g><g><defs><circle id="beta-sports--SVGID_00000056399560493944308780000017463597159669684149_" cx="44.3" cy="45.8" r="35.7"></circle><linearGradient id="beta-sports--SVGID_1_" gradientUnits="userSpaceOnUse" x1="74.0142" y1="-505.2905" x2="7.0961" y2="-505.604" gradientTransform="matrix(1.0958 0 0 1.0958 -9.580000e-02 599.4172)"><stop offset="0" style="stop-color: rgb(4, 169, 194);"></stop><stop offset="1" style="stop-color: rgb(9, 94, 189);"></stop></linearGradient><linearGradient id="beta-sports--SVGID_00000160890710492574802160000014303154398513720998_" gradientUnits="userSpaceOnUse" x1="103.7158" y1="44.2283" x2="-15.8948" y2="43.6679"><stop offset="0" style="stop-color: rgb(4, 169, 194);"></stop><stop offset="1" style="stop-color: rgb(9, 94, 189);"></stop></linearGradient><linearGradient id="beta-sports--SVGID_00000137107859320121715610000004377850367273915030_" gradientUnits="userSpaceOnUse" x1="74.1841" y1="-541.5801" x2="7.266" y2="-541.8936" gradientTransform="matrix(1.0958 0 0 1.0958 -9.580000e-02 599.4172)"><stop offset="0" style="stop-color: rgb(4, 169, 194);"></stop><stop offset="1" style="stop-color: rgb(9, 94, 189);"></stop></linearGradient><linearGradient id="beta-sports--SVGID_00000183950184926703255610000013586712917518715553_" gradientUnits="userSpaceOnUse" x1="73.8698" y1="-474.4522" x2="6.9517" y2="-474.7656" gradientTransform="matrix(1.0958 0 0 1.0958 -9.580000e-02 599.4172)"><stop offset="0" style="stop-color: rgb(4, 169, 194);"></stop><stop offset="1" style="stop-color: rgb(9, 94, 189);"></stop></linearGradient><linearGradient id="beta-sports--SVGID_00000109019705127218535360000014438251403997678226_" gradientUnits="userSpaceOnUse" x1="73.8692" y1="-474.3319" x2="6.9511" y2="-474.6454" gradientTransform="matrix(1.0958 0 0 1.0958 -9.580000e-02 599.4172)"><stop offset="0" style="stop-color: rgb(4, 169, 194);"></stop><stop offset="1" style="stop-color: rgb(9, 94, 189);"></stop></linearGradient><linearGradient id="beta-sports--SVGID_00000065068256041310082160000018384959851046193543_" gradientUnits="userSpaceOnUse" x1="74.0523" y1="-513.4147" x2="7.1342" y2="-513.7281" gradientTransform="matrix(1.0958 0 0 1.0958 -9.580000e-02 599.4172)"><stop offset="0" style="stop-color: rgb(4, 169, 194);"></stop><stop offset="1" style="stop-color: rgb(9, 94, 189);"></stop></linearGradient><linearGradient id="beta-sports--SVGID_00000173871557042342933190000015408589195369931442_" gradientUnits="userSpaceOnUse" x1="74.0537" y1="-513.7354" x2="7.1356" y2="-514.0489" gradientTransform="matrix(1.0958 0 0 1.0958 -9.580000e-02 599.4172)"><stop offset="0" style="stop-color: rgb(4, 169, 194);"></stop><stop offset="1" style="stop-color: rgb(9, 94, 189);"></stop></linearGradient><circle id="beta-sports--SVGID_00000056399560493944308780000017463597159669684149_" cx="44.3" cy="45.8" r="35.7"></circle><circle id="beta-sports--SVGID_00000080910969394666267920000007315653112342220189_" cx="44.3" cy="45.8" r="35.7"></circle><circle id="beta-sports--SVGID_00000067944996995358601680000004970381321037245837_" cx="44.3" cy="45.8" r="35.7"></circle><circle id="beta-sports--SVGID_00000136393137334160480400000011652711557331968185_" cx="44.3" cy="45.8" r="35.7"></circle><circle id="beta-sports--SVGID_00000183229110689331639040000005032271361672820877_" cx="44.3" cy="45.8" r="35.7"></circle></defs><clipPath id="beta-sports--SVGID_00000180334252422099486360000006289708053516378549_"><use xlink:href="#beta-sports--SVGID_00000056399560493944308780000017463597159669684149_" style="overflow: visible;"></use></clipPath><linearGradient id="beta-sports--SVGID_00000137107859320121715610000004377850367273915030_" gradientUnits="userSpaceOnUse" x1="74.1841" y1="-541.5801" x2="7.266" y2="-541.8936" gradientTransform="matrix(1.0958 0 0 1.0958 -9.580000e-02 599.4172)"><stop offset="0" style="stop-color: rgb(4, 169, 194);"></stop><stop offset="1" style="stop-color: rgb(9, 94, 189);"></stop></linearGradient><path d=" M51.4-9.3c2.2,0,4.1,1.4,4.8,3.5l4.1,12.5c0.7,2.1-0.1,4.4-1.8,5.6L47.8,20c-0.9,0.6-1.9,1-3,1c-1.1,0-2.1-0.3-3-1l-10.6-7.7 c-1.8-1.3-2.5-3.6-1.8-5.6l4.1-12.5c0.7-2.1,2.6-3.5,4.8-3.5H51.4z M44.9,18.2c0.5,0,0.9-0.2,1.3-0.4L56.8,10 c0.8-0.6,1.1-1.6,0.8-2.6L53.6-5c-0.3-0.9-1.2-1.6-2.2-1.6H38.3c-1,0-1.9,0.6-2.2,1.6L32.1,7.5c-0.3,0.9,0,2,0.8,2.6l10.6,7.7 C43.9,18,44.4,18.2,44.9,18.2z" style="clip-path: url(&quot;#beta-sports--SVGID_00000180334252422099486360000006289708053516378549_&quot;);" fill="url(&quot;#beta-sports--SVGID_00000137107859320121715610000004377850367273915030_&quot;)"></path></g></g><g><g><defs><circle id="beta-sports--SVGID_00000080910969394666267920000007315653112342220189_" cx="44.3" cy="45.8" r="35.7"></circle></defs><clipPath id="beta-sports--SVGID_00000077319441481836938540000002547883050333965469_"><use xlink:href="#beta-sports--SVGID_00000080910969394666267920000007315653112342220189_" style="overflow: visible;"></use></clipPath><linearGradient id="beta-sports--SVGID_00000183950184926703255610000013586712917518715553_" gradientUnits="userSpaceOnUse" x1="73.8698" y1="-474.4522" x2="6.9517" y2="-474.7656" gradientTransform="matrix(1.0958 0 0 1.0958 -9.580000e-02 599.4172)"><stop offset="0" style="stop-color: rgb(4, 169, 194);"></stop><stop offset="1" style="stop-color: rgb(9, 94, 189);"></stop></linearGradient><path d=" M84.2,80.3c0.7,2.1-0.1,4.4-1.8,5.6l-10.6,7.7c-1.8,1.3-4.2,1.3-5.9,0l-10.6-7.7c-0.9-0.6-1.5-1.5-1.8-2.5c-0.3-1-0.3-2.1,0-3.1 l4-12.5c0.7-2.1,2.6-3.5,4.8-3.5l13.1,0c2.2,0,4.1,1.4,4.8,3.5L84.2,80.3z M56,82.6c0.2,0.5,0.4,0.9,0.8,1.1l10.6,7.7 c0.8,0.6,1.9,0.6,2.7,0l10.6-7.7c0.8-0.6,1.1-1.6,0.8-2.6l-4-12.4c-0.3-0.9-1.2-1.6-2.2-1.6l-13.1,0c-1,0-1.9,0.6-2.2,1.6 l-4,12.5C55.9,81.6,55.9,82.1,56,82.6z" style="clip-path: url(&quot;#beta-sports--SVGID_00000077319441481836938540000002547883050333965469_&quot;);" fill="url(&quot;#beta-sports--SVGID_00000183950184926703255610000013586712917518715553_&quot;)"></path></g></g><g><g><defs><circle id="beta-sports--SVGID_00000067944996995358601680000004970381321037245837_" cx="44.3" cy="45.8" r="35.7"></circle></defs><clipPath id="beta-sports--SVGID_00000175314409169257314020000017348495973767527556_"><use xlink:href="#beta-sports--SVGID_00000067944996995358601680000004970381321037245837_" style="overflow: visible;"></use></clipPath><linearGradient id="beta-sports--SVGID_00000109019705127218535360000014438251403997678226_" gradientUnits="userSpaceOnUse" x1="73.8692" y1="-474.3319" x2="6.9511" y2="-474.6454" gradientTransform="matrix(1.0958 0 0 1.0958 -9.580000e-02 599.4172)"><stop offset="0" style="stop-color: rgb(4, 169, 194);"></stop><stop offset="1" style="stop-color: rgb(9, 94, 189);"></stop></linearGradient><path d=" M36.8,80.2c0.7,2.1-0.1,4.4-1.8,5.6l-10.6,7.7c-1.8,1.3-4.2,1.3-5.9,0L7.9,85.8C7,85.2,6.4,84.3,6,83.3c-0.3-1-0.3-2.1,0-3.1 l4-12.5c0.7-2.1,2.6-3.5,4.8-3.5l13.1,0c2.2,0,4.1,1.4,4.8,3.5L36.8,80.2z M8.7,82.5c0.2,0.5,0.4,0.9,0.8,1.1l10.6,7.7 c0.8,0.6,1.9,0.6,2.7,0l10.6-7.7c0.8-0.6,1.1-1.6,0.8-2.6l-4-12.4C29.9,67.6,29,67,28,67l-13.1,0c-1,0-1.9,0.6-2.2,1.6L8.7,81 C8.5,81.5,8.5,82,8.7,82.5z" style="clip-path: url(&quot;#beta-sports--SVGID_00000175314409169257314020000017348495973767527556_&quot;);" fill="url(&quot;#beta-sports--SVGID_00000109019705127218535360000014438251403997678226_&quot;)"></path></g></g><g><g><defs><circle id="beta-sports--SVGID_00000136393137334160480400000011652711557331968185_" cx="44.3" cy="45.8" r="35.7"></circle></defs><clipPath id="beta-sports--SVGID_00000158002206498174502790000013984341383085452688_"><use xlink:href="#beta-sports--SVGID_00000136393137334160480400000011652711557331968185_" style="overflow: visible;"></use></clipPath><linearGradient id="beta-sports--SVGID_00000065068256041310082160000018384959851046193543_" gradientUnits="userSpaceOnUse" x1="74.0523" y1="-513.4147" x2="7.1342" y2="-513.7281" gradientTransform="matrix(1.0958 0 0 1.0958 -9.580000e-02 599.4172)"><stop offset="0" style="stop-color: rgb(4, 169, 194);"></stop><stop offset="1" style="stop-color: rgb(9, 94, 189);"></stop></linearGradient><path d=" M-5.6,24.8c0.7-2.1,2.6-3.5,4.8-3.5l13.1,0c2.2,0,4.1,1.4,4.8,3.5l4,12.5c0.3,1,0.3,2.1,0,3.1c-0.3,1-1,1.9-1.8,2.5L8.8,50.6 c-1.8,1.3-4.2,1.3-5.9,0l-10.6-7.7c-1.8-1.3-2.5-3.6-1.8-5.6L-5.6,24.8z M18.6,38.2l-4-12.5c-0.3-0.9-1.2-1.6-2.2-1.6l-13.1,0 c-1,0-1.9,0.6-2.2,1.6l-4,12.4c-0.3,0.9,0,2,0.8,2.6l10.6,7.7c0.8,0.6,1.9,0.6,2.7,0l10.6-7.7c0.4-0.3,0.7-0.7,0.8-1.1 C18.7,39.1,18.7,38.6,18.6,38.2z" style="clip-path: url(&quot;#beta-sports--SVGID_00000158002206498174502790000013984341383085452688_&quot;);" fill="url(&quot;#beta-sports--SVGID_00000065068256041310082160000018384959851046193543_&quot;)"></path></g></g><g><g><defs><circle id="beta-sports--SVGID_00000183229110689331639040000005032271361672820877_" cx="44.3" cy="45.8" r="35.7"></circle></defs><clipPath id="beta-sports--SVGID_00000102522778040943839530000017736194351024043454_"><use xlink:href="#beta-sports--SVGID_00000183229110689331639040000005032271361672820877_" style="overflow: visible;"></use></clipPath><linearGradient id="beta-sports--SVGID_00000173871557042342933190000015408589195369931442_" gradientUnits="userSpaceOnUse" x1="74.0537" y1="-513.7354" x2="7.1356" y2="-514.0489" gradientTransform="matrix(1.0958 0 0 1.0958 -9.580000e-02 599.4172)"><stop offset="0" style="stop-color: rgb(4, 169, 194);"></stop><stop offset="1" style="stop-color: rgb(9, 94, 189);"></stop></linearGradient><path d=" M99.3,37.3c0.7,2.1-0.1,4.4-1.8,5.6l-10.6,7.7c-1.8,1.3-4.2,1.3-5.9,0l-10.6-7.7c-0.9-0.6-1.5-1.5-1.8-2.5c-0.3-1-0.3-2.1,0-3.1 l4-12.5c0.7-2.1,2.6-3.5,4.8-3.5l13.1,0c2.2,0,4.1,1.4,4.8,3.5L99.3,37.3z M71.1,39.6c0.2,0.5,0.4,0.9,0.8,1.1l10.6,7.7 c0.8,0.6,1.9,0.6,2.7,0l10.6-7.7c0.8-0.6,1.1-1.6,0.8-2.6l-4-12.4c-0.3-0.9-1.2-1.6-2.2-1.6l-13.1,0c-1,0-1.9,0.6-2.2,1.6 l-4,12.5C70.9,38.6,70.9,39.1,71.1,39.6z" style="clip-path: url(&quot;#beta-sports--SVGID_00000102522778040943839530000017736194351024043454_&quot;);" fill="url(&quot;#beta-sports--SVGID_00000173871557042342933190000015408589195369931442_&quot;)"></path></g></g></g></g></svg>