<?xml version="1.0" encoding="utf-8"?>
<!-- Generator: Adobe Illustrator 24.0.1, SVG Export Plug-In . SVG Version: 6.00 Build 0)  -->
<svg version="1.1" id="圖層_1" xmlns="http://www.w3.org/2000/svg" xmlns:xlink="http://www.w3.org/1999/xlink" x="0px" y="0px"
	 viewBox="0 0 90 90" style="enable-background:new 0 0 90 90;" xml:space="preserve">
<style type="text/css">
	.st0{fill:url(#SVGID_1_);}
	.st1{fill:url(#SVGID_2_);}
	.st2{fill:url(#SVGID_3_);}
	.st3{fill:url(#SVGID_4_);}
	.st4{fill:url(#SVGID_5_);}
</style>
<g>
	<g>
		
			<linearGradient id="SVGID_1_" gradientUnits="userSpaceOnUse" x1="83.9141" y1="-528.346" x2="5.021" y2="-527.5466" gradientTransform="matrix(1 0 0 -1 0 -476)">
			<stop  offset="0" style="stop-color:#04A9C2"/>
			<stop  offset="1" style="stop-color:#095EBD"/>
		</linearGradient>
		<path class="st0" d="M20.7,54h21.6c1.2,0,2.2-1,2.2-2.2c0-1.2-1-2.2-2.2-2.2H20.7c-1.2,0-2.2,1-2.2,2.2C18.5,53,19.5,54,20.7,54z"
			/>
		
			<linearGradient id="SVGID_2_" gradientUnits="userSpaceOnUse" x1="84.0452" y1="-515.4139" x2="5.1521" y2="-514.6142" gradientTransform="matrix(1 0 0 -1 0 -476)">
			<stop  offset="0" style="stop-color:#04A9C2"/>
			<stop  offset="1" style="stop-color:#095EBD"/>
		</linearGradient>
		<path class="st1" d="M20.7,41.1H47c1.2,0,2.2-1,2.2-2.2c0-1.2-1-2.2-2.2-2.2H20.7c-1.2,0-2.2,1-2.2,2.2
			C18.5,40.1,19.5,41.1,20.7,41.1z"/>
		
			<linearGradient id="SVGID_3_" gradientUnits="userSpaceOnUse" x1="84.1761" y1="-502.4984" x2="5.2829" y2="-501.6988" gradientTransform="matrix(1 0 0 -1 0 -476)">
			<stop  offset="0" style="stop-color:#04A9C2"/>
			<stop  offset="1" style="stop-color:#095EBD"/>
		</linearGradient>
		<path class="st2" d="M20.7,28.2h28.6c1.2,0,2.2-1,2.2-2.2s-1-2.2-2.2-2.2H20.7c-1.2,0-2.2,1-2.2,2.2
			C18.5,27.2,19.5,28.2,20.7,28.2z"/>
		
			<linearGradient id="SVGID_4_" gradientUnits="userSpaceOnUse" x1="83.7786" y1="-541.7194" x2="4.8855" y2="-540.9197" gradientTransform="matrix(1 0 0 -1 0 -476)">
			<stop  offset="0" style="stop-color:#04A9C2"/>
			<stop  offset="1" style="stop-color:#095EBD"/>
		</linearGradient>
		<path class="st3" d="M20.7,67.4h28.6c1.2,0,2.2-1,2.2-2.2c0-1.2-1-2.2-2.2-2.2H20.7c-1.2,0-2.2,1-2.2,2.2
			C18.5,66.4,19.5,67.4,20.7,67.4z"/>
		
			<linearGradient id="SVGID_5_" gradientUnits="userSpaceOnUse" x1="96.6669" y1="-520.3223" x2="5.1843" y2="-521.4028" gradientTransform="matrix(1 0 0 -1 0 -476)">
			<stop  offset="0" style="stop-color:#04A9C2"/>
			<stop  offset="1" style="stop-color:#095EBD"/>
		</linearGradient>
		<path class="st4" d="M59.2,54.3l25.1-29.1c0.3-0.4,0.5-0.8,0.4-1.3c0-0.5-0.2-0.9-0.6-1.2l-6.7-5.8c-0.7-0.6-1.8-0.5-2.5,0.2
			L63.9,30V18.1c0-6-4.9-10.9-10.9-10.9H16.3c-6,0-10.9,4.9-10.9,10.9V72c0,6,4.9,10.9,10.9,10.9h36.6c6,0,10.9-4.9,10.9-10.9V48.9
			l-4.4,5.1V72c0,3.6-3,6.6-6.6,6.6H16.3c-3.6,0-6.6-2.9-6.6-6.6v-54c0-3.6,2.9-6.6,6.6-6.6h36.6c3.6,0,6.6,2.9,6.6,6.6v17
			l-9.7,11.2c-0.2,0.2-0.3,0.4-0.4,0.7l-2.6,9.8c-0.2,0.7,0,1.3,0.5,1.8c0.3,0.3,0.7,0.4,1.2,0.4c0.2,0,0.5,0,0.7-0.1l9.3-4
			C58.8,54.6,59,54.5,59.2,54.3z M76.5,20.7l4.1,3.5l-1.4,1.6l-2-1.7l0,0l-2.1-1.8L76.5,20.7z M73.6,24.1l1.2,1L54.5,48.6l-1.2-1
			L73.6,24.1z M51.2,54.1l1.2-4.3l2.9,2.5L51.2,54.1z M56.2,50.2l20.3-23.5l1.1,1L57.3,51.1L56.2,50.2z"/>
	</g>
</g>
</svg>
