<?xml version="1.0" encoding="utf-8"?>
<!-- Generator: Adobe Illustrator 24.0.1, SVG Export Plug-In . SVG Version: 6.00 Build 0)  -->
<svg version="1.1" id="圖層_1" xmlns="http://www.w3.org/2000/svg" xmlns:xlink="http://www.w3.org/1999/xlink" x="0px" y="0px"
	 viewBox="0 0 30 18" style="enable-background:new 0 0 30 18;" xml:space="preserve">
<style type="text/css">
	.st0{fill:url(#SVGID_1_);}
	.st1{fill:url(#SVGID_2_);}
	.st2{fill:url(#SVGID_3_);}
</style>
<g>
	<g>
		
			<linearGradient id="SVGID_1_" gradientUnits="userSpaceOnUse" x1="-48.3334" y1="77.0623" x2="-25.1518" y2="77.0623" gradientTransform="matrix(1.2 0 0 -1.2 58 101.2)">
			<stop  offset="0" style="stop-color:#04A9C2"/>
			<stop  offset="0.2085" style="stop-color:#05A0C1"/>
			<stop  offset="0.5476" style="stop-color:#0688C0"/>
			<stop  offset="0.973" style="stop-color:#0961BD"/>
			<stop  offset="1" style="stop-color:#095EBD"/>
		</linearGradient>
		<path class="st0" d="M0.9,9.6C0.4,9.6,0,9.2,0,8.7c0-0.5,0.4-0.9,0.9-0.9H27c0.5,0,0.9,0.4,0.9,0.9c0,0.5-0.4,0.9-0.9,0.9H0.9z"/>
		
			<linearGradient id="SVGID_2_" gradientUnits="userSpaceOnUse" x1="-44.7319" y1="83.6126" x2="-23.7582" y2="83.6126" gradientTransform="matrix(1.2 0 0 -1.2 58 101.2)">
			<stop  offset="0" style="stop-color:#04A9C2"/>
			<stop  offset="0.2085" style="stop-color:#05A0C1"/>
			<stop  offset="0.5476" style="stop-color:#0688C0"/>
			<stop  offset="0.973" style="stop-color:#0961BD"/>
			<stop  offset="1" style="stop-color:#095EBD"/>
		</linearGradient>
		<path class="st1" d="M5.2,1.7c-0.5,0-0.9-0.4-0.9-0.9S4.7,0,5.2,0h23.4c0.5,0,0.9,0.4,0.9,0.9c0,0.5-0.4,0.9-0.9,0.9L5.2,1.7
			L5.2,1.7z"/>
		
			<linearGradient id="SVGID_3_" gradientUnits="userSpaceOnUse" x1="-44.7319" y1="70.512" x2="-23.7582" y2="70.512" gradientTransform="matrix(1.2 0 0 -1.2 58 101.2)">
			<stop  offset="0" style="stop-color:#04A9C2"/>
			<stop  offset="0.2085" style="stop-color:#05A0C1"/>
			<stop  offset="0.5476" style="stop-color:#0688C0"/>
			<stop  offset="0.973" style="stop-color:#0961BD"/>
			<stop  offset="1" style="stop-color:#095EBD"/>
		</linearGradient>
		<path class="st2" d="M5.2,17.5c-0.5,0-0.9-0.4-0.9-0.9c0-0.5,0.4-0.9,0.9-0.9h23.4c0.5,0,0.9,0.4,0.9,0.9c0,0.5-0.4,0.9-0.9,0.9
			H5.2z"/>
	</g>
</g>
</svg>
