<?xml version="1.0" encoding="utf-8"?>
<!-- Generator: Adobe Illustrator 23.0.1, SVG Export Plug-In . SVG Version: 6.00 Build 0)  -->
<svg version="1.1" id="Layer_1" xmlns="http://www.w3.org/2000/svg" xmlns:xlink="http://www.w3.org/1999/xlink" x="0px" y="0px"
	 viewBox="0 0 246.96001 82.41449" style="enable-background:new 0 0 246.96001 82.41449;" xml:space="preserve">
<style type="text/css">
	.st0{fill:#242B57;}
	.st1{fill:#0286C8;}
</style>
<g>
	<polygon class="st0" points="90.68456,10.30739 130.44635,10.30739 130.44635,22.35869 103.74125,22.35869 103.74125,34.41099 
		128.43556,34.41099 128.43556,46.46759 103.74125,46.46759 103.74125,69.56959 90.68456,69.56959 	"/>
	<path class="st0" d="M139.81935,10.30739h22.0127c3.06931,0,5.9726,0.2784,8.70511,0.8335
		c2.73529,0.5611,5.12109,1.5235,7.15919,2.8902c2.03799,1.3676,3.6523,3.2085,4.85249,5.5239
		c1.20021,2.3149,1.7988,5.2314,1.7988,8.749c0,3.46-0.55469,6.3618-1.67189,8.7046c-1.1162,2.3428-2.65331,4.2134-4.6044,5.6099
		c-1.9512,1.3925-4.2715,2.3833-6.9454,2.9712c-2.6796,0.5839-5.58099,0.8779-8.707,0.8779h-9.543v23.102h-13.05659V10.30739z
		 M152.87595,35.41829h8.709c1.16901,0,2.2979-0.1099,3.3867-0.3345c1.0899-0.2236,2.0645-0.6001,2.93269-1.1294
		c0.86131-0.5288,1.5576-1.2568,2.09081-2.1758c0.5293-0.9228,0.7959-2.0781,0.7959-3.4746c0-1.5093-0.35159-2.7217-1.0498-3.6396
		c-0.69629-0.9239-1.58789-1.6348-2.67679-2.1382c-1.08789-0.5-2.2998-0.8208-3.6416-0.9624
		c-1.33791-0.1377-2.62401-0.2085-3.8486-0.2085h-6.6983V35.41829z"/>
	<polygon class="st0" points="207.28415,38.59749 187.69635,10.30739 204.10156,10.30739 216.74025,31.06279 228.87895,10.30739 
		244.70024,10.30739 225.53125,38.34799 246.95995,69.57159 230.55174,69.57159 216.07524,45.71269 202.01074,69.57159 
		186.52545,69.57159 	"/>
	<path class="st1" d="M33.49656,58.45049l-8.26511-11.189c-1.2266-1.6635-3.3457-3.8564-3.3457-6.0532
		c0-2.1914,2.1079-4.3843,3.3457-6.0542l8.26511-11.1992c0.39509-0.5391,0.771-0.916,1.13969-1.2217V9.84549
		c0-10.3525-4.332-12.9643-9.6235-5.7983l-17.8228,24.1274c-2.64839,3.5874-7.1899,8.3072-7.1899,13.0337
		c0,4.7197,4.5532,9.4419,7.1899,13.0518l17.8228,24.0986c5.2915,7.1719,9.6235,4.584,9.6235-5.79v-12.8911
		C34.26756,59.37919,33.89165,58.99839,33.49656,58.45049"/>
	<path class="st0" d="M68.51075,28.17269l-17.8291-24.1255c-5.2895-7.1699-9.6196-4.5571-9.6196,5.7983v12.8877
		c0.3579,0.2964,0.7387,0.6826,1.1294,1.2217l8.2783,11.1992c1.2324,1.6699,3.3432,3.8628,3.3432,6.0542
		c0,2.1929-2.1108,4.3897-3.3432,6.0552l-8.2783,11.187c-0.3907,0.5537-0.7715,0.9287-1.1294,1.2339v12.8843
		c0,10.3779,4.3301,12.956,9.6196,5.79l17.8291-24.1011c2.647-3.6098,7.188-8.3379,7.188-13.0551
		C75.69875,36.48179,71.15775,31.76199,68.51075,28.17269"/>
</g>
</svg>
